<?xml version="1.0" encoding="utf-8"?>
<!-- Generator: Adobe Illustrator 22.0.0, SVG Export Plug-In . SVG Version: 6.00 Build 0)  -->
<svg version="1.1" id="Layer_1" xmlns="http://www.w3.org/2000/svg" xmlns:xlink="http://www.w3.org/1999/xlink" x="0px" y="0px"
	 viewBox="0 0 2000 2000" style="enable-background:new 0 0 2000 2000;" xml:space="preserve">
<style type="text/css">
	.st0{fill:#002171;stroke:#002171;stroke-width:2.2704;stroke-miterlimit:10;}
	.st1{fill:#11B0B8;}
	.st2{fill:#6BBE4F;}
	.st3{fill:#002171;}
</style>
<g>
	<g>
		<g>
			<g>
				<path class="st0" d="M538.7,986.4c-7.8,2.7-22.4,6.2-37,6.2c-20.3,0-34.9-5.1-45.1-14.9c-10.2-9.6-15.8-24.1-15.7-40.4
					c0.1-36.9,27-57.9,63.4-57.9c14.3,0,25.4,2.7,30.8,5.3l-5.2,20.1c-6.2-2.7-13.6-4.7-25.8-4.7c-20.9,0-36.8,11.8-36.8,35.9
					c0,22.9,14.5,36.3,35,36.3c5.7,0,10.3-0.7,12.3-1.6v-23.3h-17.2V928h41.4V986.4z"/>
				<path class="st0" d="M568.1,882.1c8.1-1.4,20-2.4,33.3-2.4c16.5,0,28,2.5,35.9,8.8c6.6,5.3,10.3,13.1,10.3,23.3
					c0,14.1-10,23.8-19.6,27.3v0.5c7.7,3.1,12,10.5,14.8,20.7c3.4,12.6,6.8,27,9,31.3h-25.7c-1.7-3.2-4.5-12.1-7.6-25.9
					c-3.1-13.9-7.7-17.6-18.1-17.7H593v43.6h-24.9V882.1z M593,929.8h9.8c12.4,0,19.9-6.3,19.9-16c0-10.2-7-15.4-18.4-15.4
					c-6,0-9.5,0.4-11.3,0.8V929.8z"/>
				<path class="st0" d="M671.7,991.6v-15.2l13.8-12.4c23.4-21,34.8-33,35-45.5c0-8.7-5.1-15.6-17.5-15.6c-9.2,0-17.3,4.6-22.9,8.8
					l-7-17.9c8-6.1,20.6-11,35-11c24.3,0,37.5,14.2,37.5,33.5c0,18-12.9,32.4-28.5,46.1l-9.9,8.2v0.3h40.5v20.6H671.7z"/>
				<path class="st0" d="M885.9,944.6h-40.8V971h45.6v20.5H820V880.6h68.3v20.5h-43.3v23.1h40.8V944.6z"/>
				<path class="st0" d="M917.7,991.6V880.6H947l23,40.7c6.6,11.6,13.1,25.5,18.1,38.1l0.4-0.1c-1.5-14.7-2-29.6-2-46.4v-32.3h23
					v110.9h-26.3l-23.8-42.7c-6.6-12-13.9-26.2-19.3-39.2l-0.6,0.1c0.8,14.7,1.1,30.4,1.1,48.5v33.4H917.7z"/>
				<path class="st0" d="M1133.9,986.4c-7.8,2.7-22.4,6.2-37,6.2c-20.3,0-34.9-5.1-45.1-14.9c-10.2-9.6-15.8-24.1-15.7-40.4
					c0.1-36.9,27-57.9,63.4-57.9c14.3,0,25.4,2.7,30.8,5.3l-5.2,20.1c-6.2-2.7-13.6-4.7-25.8-4.7c-20.9,0-36.8,11.8-36.8,35.9
					c0,22.9,14.5,36.3,35,36.3c5.7,0,10.3-0.7,12.3-1.6v-23.3h-17.2V928h41.4V986.4z"/>
				<path class="st0" d="M1188.4,880.6v110.9h-25.1V880.6H1188.4z"/>
				<path class="st0" d="M1220.2,991.6V880.6h29.2l23,40.7c6.6,11.6,13.1,25.5,18.1,38.1l0.4-0.1c-1.5-14.7-2-29.6-2-46.4v-32.3h23
					v110.9h-26.3l-23.8-42.7c-6.6-12-13.9-26.2-19.3-39.2l-0.5,0.1c0.8,14.7,1.1,30.4,1.1,48.5v33.4H1220.2z"/>
				<path class="st0" d="M1409.6,944.6h-40.8V971h45.6v20.5h-70.7V880.6h68.3v20.5h-43.3v23.1h40.8V944.6z"/>
				<path class="st0" d="M1507.4,944.6h-40.8V971h45.6v20.5h-70.7V880.6h68.3v20.5h-43.3v23.1h40.8V944.6z"/>
				<path class="st0" d="M1539.2,882.1c8.1-1.4,20-2.4,33.3-2.4c16.5,0,28,2.5,35.9,8.8c6.6,5.3,10.3,13.1,10.3,23.3
					c0,14.1-10,23.8-19.6,27.3v0.5c7.7,3.1,12,10.5,14.8,20.7c3.4,12.6,6.8,27,9,31.3h-25.7c-1.7-3.2-4.5-12.1-7.6-25.9
					c-3.1-13.9-7.7-17.6-18.1-17.7h-7.5v43.6h-24.9V882.1z M1564.1,929.8h9.8c12.4,0,19.9-6.3,19.9-16c0-10.2-7-15.4-18.4-15.4
					c-6,0-9.5,0.4-11.3,0.8V929.8z"/>
				<path class="st0" d="M1671.8,880.6v110.9h-25.1V880.6H1671.8z"/>
				<path class="st0" d="M1703.5,991.6V880.6h29.2l23,40.7c6.6,11.6,13.1,25.5,18.1,38.1l0.4-0.1c-1.5-14.7-2-29.6-2-46.4v-32.3h23
					v110.9h-26.3l-23.8-42.7c-6.6-12-13.9-26.2-19.3-39.2l-0.5,0.1c0.8,14.7,1.1,30.4,1.1,48.5v33.4H1703.5z"/>
				<path class="st0" d="M1919.7,986.4c-7.8,2.7-22.4,6.2-37,6.2c-20.3,0-34.9-5.1-45.1-14.9c-10.2-9.6-15.8-24.1-15.7-40.4
					c0.1-36.9,27-57.9,63.4-57.9c14.3,0,25.4,2.7,30.8,5.3l-5.2,20.1c-6.2-2.7-13.6-4.7-25.8-4.7c-20.9,0-36.8,11.8-36.8,35.9
					c0,22.9,14.5,36.3,35,36.3c5.7,0,10.3-0.7,12.3-1.6v-23.3h-17.2V928h41.4V986.4z"/>
			</g>
		</g>
		<g>
			<g>
				<path class="st0" d="M493.8,1117.3c-2.7,1.1-8.3,2.9-15.6,2.9c-7.1,0-13.6-1.8-19-7c-4.4-4.3-7.4-11.5-7.4-20.1
					c0-14.8,9.8-27.5,28-27.5c5.7,0,10.4,1.4,12.5,2.4l-1.2,3.1c-2.8-1.3-6.3-2.3-11.4-2.3c-14.8,0-23.8,9.6-23.8,24.1
					c0,15.1,8.9,24.1,23,24.1c5.6,0,9.2-0.8,11.2-1.9v-18.9h-12.4v-3.1h16.2V1117.3z"/>
				<path class="st0" d="M511.3,1066.1h3.8v50.4H539v3.2h-27.7V1066.1z"/>
				<path class="st0" d="M594,1092.3c0,18.9-11.6,28.2-24,28.2c-13.2,0-23.4-10.4-23.4-27.1c0-17.6,10.6-28.2,24-28.2
					C584.2,1065.2,594,1075.7,594,1092.3z M550.6,1093.3c0,12.1,7,24.1,19.7,24.1c12.7,0,19.8-11.5,19.8-24.8
					c0-11.3-6.2-24.2-19.6-24.2C556.9,1068.3,550.6,1080.7,550.6,1093.3z"/>
				<path class="st0" d="M609.8,1066.8c3-0.7,6.8-1.2,10.8-1.2c6.7,0,11,1.5,14,4.4c2.2,2.2,3.3,5.1,3.3,8.8
					c0,5.5-3.9,10.1-9.2,11.9v0.2c4.5,1,11.3,4.9,11.3,13.6c0,4.4-1.5,7.7-4,10.2c-3.5,3.7-9.3,5.1-16.9,5.1c-4.1,0-7.2-0.3-9.3-0.5
					V1066.8z M613.6,1089.6h7.8c7.7,0,12.6-4.6,12.6-10.5c0-7.5-5.7-10.3-13.6-10.3c-3.6,0-5.6,0.3-6.8,0.6V1089.6z M613.6,1116.4
					c1.6,0.3,3.8,0.4,6.6,0.4c8.2,0,15.9-2.9,15.9-12.1c0-8.5-7.2-12.1-15.7-12.1h-6.8V1116.4z"/>
				<path class="st0" d="M662.8,1100.9l-6.6,18.7h-3.9l19.4-53.6h3.7l19.3,53.6h-3.9l-6.7-18.7H662.8z M682.8,1097.7l-6.5-17.9
					c-1.3-3.7-2-6.4-2.8-9.4h-0.2c-0.8,3.1-1.6,5.9-2.8,9.3l-6.6,18.1H682.8z"/>
				<path class="st0" d="M709.2,1066.1h3.8v50.4h23.9v3.2h-27.7V1066.1z"/>
				<path class="st0" d="M895.1,1093h-21.4v23.4h24v3.2h-27.7v-53.6h26.5v3.2h-22.7v20.5h21.4V1093z"/>
				<path class="st0" d="M943.3,1119.6l-8.1-13.2c-3.3-5-5.2-8.1-7-11.1H928c-1.7,3.1-3.4,6-6.8,11.2l-7.7,13.1h-4.4l17-27.1
					l-16.3-26.4h4.4l8.6,14.3c2.2,3.6,3.9,6.3,5.5,9.2h0.2c1.7-3,3.3-5.6,5.6-9.2l9-14.3h4.4l-17.1,26.1l17.2,27.5H943.3z"/>
				<path class="st0" d="M962.9,1066.7c3.1-0.6,6.9-1,11.4-1c6.4,0,11.2,1.6,14.2,4.5c2.6,2.5,4.1,6,4.1,10.5c0,4.6-1.3,8-3.7,10.7
					c-3.4,3.9-9.2,6-15.7,6c-2.4,0-4.6-0.1-6.5-0.6v22.9h-3.8V1066.7z M966.7,1093.4c1.9,0.6,4.2,0.8,6.8,0.8
					c9.6,0,15.3-4.6,15.3-13.1c0-8.4-6.1-12.2-14.6-12.2c-3.5,0-6.1,0.3-7.5,0.6V1093.4z"/>
				<path class="st0" d="M1034.4,1093h-21.4v23.4h24v3.2h-27.7v-53.6h26.5v3.2h-22.7v20.5h21.4V1093z"/>
				<path class="st0" d="M1052.5,1066.8c3.3-0.7,7.9-1.2,11.6-1.2c7,0,11.4,1.5,14.4,4.5c2.3,2.2,3.7,5.8,3.7,9.5
					c0,7.2-4.3,11.8-10.5,13.9v0.2c4.3,1.4,7,5.4,8.3,11.4c1.8,8.4,2.9,12.3,4,14.4h-4c-0.9-1.5-2-6.3-3.4-13
					c-1.6-7.7-4.9-11.2-12-11.5h-8.4v24.6h-3.8V1066.8z M1056.3,1092h8.5c8.3,0,13.6-4.6,13.6-11.7c0-8.2-6-11.6-14.4-11.6
					c-3.6,0-6.3,0.4-7.7,0.7V1092z"/>
				<path class="st0" d="M1102.7,1066.1v53.6h-3.8v-53.6H1102.7z"/>
				<path class="st0" d="M1147.3,1093h-21.4v23.4h24v3.2h-27.7v-53.6h26.5v3.2h-22.7v20.5h21.4V1093z"/>
				<path class="st0" d="M1165.4,1119.6v-53.6h3.6l20.9,31.6c4.4,6.7,7.4,11.7,10.1,16.9l0.2-0.1c-0.6-7.2-0.6-13.3-0.6-21.7v-26.7
					h3.7v53.6h-3.5l-20.4-31.2c-4-6.1-7.6-11.8-10.4-17.3l-0.2,0.1c0.4,6.6,0.5,12.4,0.5,21.3v27.1H1165.4z"/>
				<path class="st0" d="M1258.8,1117.8c-2.7,1.4-7.9,2.7-14.4,2.7c-13,0-25.3-8.3-25.3-27.3c0-15.9,10.3-27.9,27.2-27.9
					c6.8,0,10.8,1.5,12.4,2.3l-1.2,3.2c-2.7-1.4-6.6-2.3-11.1-2.3c-14.4,0-23.3,9.4-23.3,24.8c0,14.6,8.3,23.9,22.6,23.9
					c4.6,0,9-0.9,12.1-2.5L1258.8,1117.8z"/>
				<path class="st0" d="M1299.3,1093h-21.4v23.4h24v3.2h-27.7v-53.6h26.5v3.2h-22.7v20.5h21.4V1093z"/>
				<path class="st0" d="M1317.5,1066.8c4.1-0.7,8.7-1.2,13.7-1.2c9.8,0,17.1,2.6,21.6,7.3c4.3,4.5,6.7,10.5,6.7,18.6
					c0,7.9-2.1,15-7,20.3c-4.7,5.2-12.8,8.2-23.1,8.2c-4.1,0-8-0.1-11.9-0.5V1066.8z M1321.3,1116.4c2.2,0.3,5.3,0.4,8.6,0.4
					c17.2,0,25.7-9.6,25.7-25.1c0.1-13.6-7.4-22.9-24.6-22.9c-4.2,0-7.4,0.4-9.7,0.9V1116.4z"/>
				<path class="st0" d="M1497.7,1066.1v53.6h-3.8v-53.6H1497.7z"/>
				<path class="st0" d="M1517.1,1119.6v-53.6h3.6l20.9,31.6c4.4,6.7,7.4,11.7,10.1,16.9l0.2-0.1c-0.6-7.2-0.6-13.3-0.6-21.7v-26.7
					h3.7v53.6h-3.5l-20.4-31.2c-4-6.1-7.6-11.8-10.4-17.3l-0.2,0.1c0.4,6.6,0.5,12.4,0.5,21.3v27.1H1517.1z"/>
				<path class="st0" d="M1574.1,1119.6v-53.6h3.6l20.9,31.6c4.4,6.7,7.4,11.7,10.1,16.9l0.2-0.1c-0.6-7.2-0.6-13.3-0.6-21.7v-26.7
					h3.7v53.6h-3.5l-20.4-31.2c-4-6.1-7.6-11.8-10.4-17.3l-0.2,0.1c0.4,6.6,0.5,12.4,0.5,21.3v27.1H1574.1z"/>
				<path class="st0" d="M1675,1092.3c0,18.9-11.6,28.2-24,28.2c-13.2,0-23.4-10.4-23.4-27.1c0-17.6,10.6-28.2,24-28.2
					C1665.2,1065.2,1675,1075.7,1675,1092.3z M1631.6,1093.3c0,12.1,7,24.1,19.7,24.1c12.7,0,19.8-11.5,19.8-24.8
					c0-11.3-6.2-24.2-19.6-24.2C1637.9,1068.3,1631.6,1080.7,1631.6,1093.3z"/>
				<path class="st0" d="M1702.8,1119.6l-17.8-53.6h4l9.5,28.7c2.6,7.7,4.8,14.6,6.3,20.5h0.2c1.6-6,4.1-13,6.8-20.5l10.5-28.7h4
					l-19.8,53.6H1702.8z"/>
				<path class="st0" d="M1739.9,1100.9l-6.6,18.7h-3.9l19.4-53.6h3.7l19.3,53.6h-3.9l-6.7-18.7H1739.9z M1760,1097.7l-6.5-17.9
					c-1.3-3.7-2-6.4-2.8-9.4h-0.2c-0.8,3.1-1.6,5.9-2.8,9.3l-6.6,18.1H1760z"/>
				<path class="st0" d="M1790.8,1069.2h-17.5v-3.2h38.7v3.2h-17.5v50.4h-3.8V1069.2z"/>
				<path class="st0" d="M1827.7,1066.1v53.6h-3.8v-53.6H1827.7z"/>
				<path class="st0" d="M1858.3,1119.6l-17.8-53.6h4l9.5,28.7c2.6,7.7,4.8,14.6,6.3,20.5h0.2c1.6-6,4.1-13,6.8-20.5l10.5-28.7h4
					l-19.8,53.6H1858.3z"/>
				<path class="st0" d="M1919,1093h-21.4v23.4h24v3.2h-27.7v-53.6h26.5v3.2h-22.7v20.5h21.4V1093z"/>
			</g>
		</g>
	</g>
	<g>
		<path class="st1" d="M376.7,997.3c-1.2,19.4-6.8,33.8-9.1,39.1c-6.9,16.3-15.8,26.8-18.1,29.6c-4.5,5.2-16.8,18.4-37.2,27.7
			c-18.8,8.5-34.9,9.5-46.8,10c-4.1,0.2-9.9,0.4-16.9,0h0c-7.4-0.4-16.3-1.6-26.1-4.3c-8-2.2-24.2-6.9-41-20
			c-18.3-14.3-26.8-30.4-28.6-33.8c-5.3-10.2-7.8-19.6-9.1-26.2c3.5,6.5,9.1,15.3,17.7,24.3c4.1,4.4,10.9,11.4,21.5,17.6
			c14.1,8.3,27,10.5,36.3,11.9c6.1,1,17.2,2.6,31.5,1c24.4-2.9,41.1-13.6,44.4-15.7c21.6-14.2,31.2-32.9,34.8-40
			c0.7-1.5,1.4-2.9,2.1-4.4v0c4.8-10.7,6.5-19.4,7-22.3c2.3-12.8,1.4-22.6,0.5-31.5c-1.1-11.3-2.6-25.2-10-41
			c-7.9-16.8-18.6-26.9-27.7-35.3c-8.8-8.2-23.7-20-45.3-29.1c15.1,3.1,27.3,7.6,36.3,11.4c6.9,3,18.3,8,31.5,17.6
			c6.3,4.6,15.7,11.5,25.3,23.4c10,12.4,15.2,23.8,17.2,28.6c5.1,12.3,6.8,22.4,8.1,31C376,974.6,377.5,984.4,376.7,997.3z"/>
		<path class="st2" d="M381.5,1045.5c-5.4,14.9-17.9,42.6-45.3,66.3c-24,20.7-48,28.4-53.4,30c-4.2,1.3-20.9,6.1-43.4,6.2
			c-7.1,0-20.5,0-37.2-4.3c-33.1-8.5-53.6-27.1-57.7-31c-5.6-5.3-15.5-14.7-23.4-30c-1.4-2.8-2.7-5.5-3.8-8.2
			c-5.6-13.9-6.8-26.3-7.7-36.6c-1-12.1-3-37.4,9.1-66.3c3-7.2,8.9-21.1,21.9-35.3c17.2-18.7,36.8-27,47.2-30.5
			c-26.5,24.6-41.5,49.8-45.3,64.8c-1.8,6.9-4.4,24-4.7,36.2c-0.1,2.1-0.1,3.7-0.1,4.8c0,9.4-0.1,14.8,1.4,21.9
			c4.3,20.4,16.9,33.6,23.9,41c15.4,16.4,31.9,23.2,42.9,27.7c2.9,1.2,10.7,4.2,22.1,6.6c10.2,2.2,23.2,3.9,38,3.4
			c12.5-0.4,32.5-1.3,54.9-12.4c13.8-6.8,22.9-15.3,32.9-24.3C366.2,1064.3,375.3,1053.6,381.5,1045.5z"/>
		<path class="st3" d="M332.5,988.7c-2-10.3-5.9-23.8-14-37.8c-1.9-3.3-7.8-13.2-18.1-23.8c-1.9-2-9.6-9.8-21.3-17.8
			c-2.7-1.8-7.7-5.1-14.3-8.6c-30.9-16.2-66.5-9.4-66.5-9.4c-4.4,0.8-60.4,7.1-90.9,90.4c-1.7,4.6-4.7,17-5.7,33.4
			c-1.4,22,2.1,38.7,3.2,43.2c0.2,1.1,0.5,2.2,0.8,3.2c5.4,21.6,15,38,22.6,48.8c-13.8-15.1-33.8-41.4-43.7-77.4
			c-4.2-15.4-5.5-28.5-5.9-36.4c-0.2-3.6-0.2-6.1-0.1-7.4c0.2-18.2,3.8-33,7-43.2c4.3-11.5,11.9-27.6,25.4-43.9
			c19.6-23.5,41.8-35.5,54.7-41.3c6-2.4,15-5.9,26.2-7.5c0,0,0,0,0,0c22.6-3.1,38.9,1.4,46.9,3.1c33.6,8.5,61.9,30.1,79.2,59
			c5,8.7,8,16.5,9.8,22.1c2.4,8,4.8,18.3,5.4,30.5C333.6,975.6,333.2,982.7,332.5,988.7z"/>
	</g>
</g>
</svg>
